<?xml version="1.0" encoding="UTF-8"?>
<svg width="39px" height="23px" viewBox="0 0 39 23" version="1.1" xmlns="http://www.w3.org/2000/svg" xmlns:xlink="http://www.w3.org/1999/xlink">
    <!-- Generator: Sketch 64 (93537) - https://sketch.com -->
    <title>arrow-down</title>
    <desc>Created with Sketch.</desc>
    <g id="Spesa-a-domiclio" stroke="none" stroke-width="1" fill="none" fill-rule="evenodd">
        <g id="Zona_01" transform="translate(-1039.000000, -341.000000)" fill="#49C4A0" fill-rule="nonzero" stroke="#49C4A0">
            <g id="arrow-down" transform="translate(1040.000000, 342.000000)">
                <path d="M0.283262212,1.78107495 C2.25194858,3.91001703 4.22063496,6.03694439 6.18921931,8.16567983 C9.3315476,11.5638973 12.4639799,14.9542625 15.6062062,18.3524282 C16.3315197,19.1373952 17.0547929,19.9122886 17.7801064,20.6973073 C18.146742,21.1008976 18.8521361,21.1008976 19.2187462,20.6973073 C21.1874326,18.5683652 23.1561189,16.4414378 25.1247033,14.3127024 C28.2670316,10.914485 31.3994639,7.52411977 34.5416901,4.12595399 C35.2670037,3.34098699 35.9902769,2.56609361 36.7155904,1.78107495 C37.6142365,0.8104435 36.1755968,-0.656636312 35.2769507,0.324120413 C33.3082643,2.45306249 31.3395779,4.57998985 29.3709936,6.70872529 C26.2286653,10.1069427 23.096233,13.4973079 19.9540067,16.8954737 C19.2286932,17.6804407 18.50542,18.4553341 17.7801064,19.2403527 L19.2187462,19.2403527 C17.2500598,17.1114107 15.2813734,14.9844833 13.3127891,12.8557479 C10.1704608,9.45753042 7.03802848,6.06716523 3.89580221,2.66899945 C3.17048866,1.88403245 2.4472155,1.10913907 1.72190194,0.324120413 C0.833202818,-0.646511038 -0.615383895,0.810448666 0.283262212,1.78107495 Z" id="Path"></path>
            </g>
        </g>
    </g>
</svg>