<?xml version="1.0" encoding="UTF-8"?>
<svg width="16px" height="16px" viewBox="0 0 16 16" version="1.1" xmlns="http://www.w3.org/2000/svg" xmlns:xlink="http://www.w3.org/1999/xlink">
    <!-- Generator: Sketch 64 (93537) - https://sketch.com -->
    <title>cross</title>
    <desc>Created with Sketch.</desc>
    <g id="Spesa-a-domiclio" stroke="none" stroke-width="1" fill="none" fill-rule="evenodd">
        <g id="Zona_01" transform="translate(-1243.000000, -37.000000)" fill="#FDCD2F" fill-rule="nonzero">
            <g id="cross" transform="translate(1244.000000, 38.000000)">
                <path d="M-0.442921514,-0.442921514 C-0.0132053412,-0.872637687 0.664431418,-0.9033317 1.12956482,-0.535003551 L1.23292148,-0.442921514 L14.6629208,12.9870778 C15.1256921,13.4498491 15.1256921,14.2001496 14.6629208,14.6629208 C14.2332047,15.092637 13.5555679,15.123331 13.0904345,14.7550029 L12.9870778,14.6629208 L-0.442921514,1.23292148 C-0.905692778,0.770150213 -0.905692778,0.0198497491 -0.442921514,-0.442921514 Z" id="Line"></path>
                <path d="M-0.442921514,-0.442921514 C-0.0132053412,-0.872637687 0.664431418,-0.9033317 1.12956482,-0.535003551 L1.23292148,-0.442921514 L14.6629208,12.9870778 C15.1256921,13.4498491 15.1256921,14.2001496 14.6629208,14.6629208 C14.2332047,15.092637 13.5555679,15.123331 13.0904345,14.7550029 L12.9870778,14.6629208 L-0.442921514,1.23292148 C-0.905692778,0.770150213 -0.905692778,0.0198497491 -0.442921514,-0.442921514 Z" id="Line-Copy" transform="translate(7.110000, 7.110000) scale(-1, 1) translate(-7.110000, -7.110000) "></path>
            </g>
        </g>
    </g>
</svg>